<svg id="Calque_1" data-name="Calque 1" xmlns="http://www.w3.org/2000/svg" viewBox="0 0 55.67 48.93"><defs><style>.cls-1{fill:#1d1d1b;}.cls-2{fill:#fff;}.cls-3{fill:none;}</style></defs><path class="cls-1" d="M26,35.93a.33.33,0,0,0-.28-.18.49.49,0,0,0-.28.09,1.37,1.37,0,0,0-.23.19.92.92,0,0,0-.17.21,5.64,5.64,0,0,0-.44.71,6.87,6.87,0,0,0-.34.74l-.22.48-.24.49c-.87.91-1.75,1.8-2.61,2.64a23,23,0,0,1-2.82,2.39l0,0H18.1c-.28,0-.58,0-.89,0a1.81,1.81,0,0,0-1.07.5.91.91,0,0,0-.18.21.42.42,0,0,0-.08.29.36.36,0,0,0,.32.35,1.22,1.22,0,0,0,.46,0,4.53,4.53,0,0,0,.44-.15l.28-.13a7.08,7.08,0,0,0,.85-.51l.05,0h0l1.81.19c.54.05,1.09.09,1.63.1H22l-.05.19c-.05.19-.1.37-.15.53l-.29.88c-.1.31-.22.62-.34,1a6.9,6.9,0,0,1-.41.86,2.83,2.83,0,0,1-.51.67,1.93,1.93,0,0,1-.67.43.13.13,0,0,0-.09.11v.08l0,0a.18.18,0,0,0,.14.06,1.15,1.15,0,0,0,.22,0,2.24,2.24,0,0,0,1-.62,5.68,5.68,0,0,0,.69-.9,8.44,8.44,0,0,0,.52-.91q.22-.49.42-1c.1-.26.19-.51.29-.75L23,44.5h.1a8.16,8.16,0,0,0,.95-.16,2.52,2.52,0,0,0,1-.49,2.26,2.26,0,0,0,.22-.22.9.9,0,0,0,.17-.32.15.15,0,0,0-.09-.19h0a.25.25,0,0,0-.14.08,1.31,1.31,0,0,1-.42.39,1.92,1.92,0,0,1-.55.24,3.24,3.24,0,0,1-.62.12l-.42,0,.07-.22c.28-.82.51-1.66.71-2.49.23-1,.46-1.95.68-2.84v0l0,0,.37-.42c.19-.23.36-.45.51-.67a4.35,4.35,0,0,0,.39-.68A.78.78,0,0,0,26,35.93Zm-2.52,3.7-.34.81c-.15.44-.28.84-.39,1.21-.22.75-.42,1.48-.6,2.18l0,.12-.69-.05-.76-.06L19,43.73l.31-.24c.56-.43,1.08-.87,1.55-1.29.64-.57,1.27-1.16,1.88-1.75Zm-6.35,4.3V44h.89l-.25.25a2.77,2.77,0,0,1-.38.33,1.6,1.6,0,0,1-.43.22l-.1,0a1.94,1.94,0,0,1-.58.1s-.17,0-.22-.07L16,44.74v-.06a.91.91,0,0,1,.28-.4,2,2,0,0,1,.83-.28v-.07Z" transform="translate(-0.37 -0.4)"/><path d="M4,43.63c0,.22-.2.86-.27,1.07H.37v-.19c.62,0,.68-.1.68-.67V41.19c0-.57-.05-.6-.65-.64v-.2h2v.2c-.59,0-.66.06-.66.64v2.63c0,.36,0,.49.17.55a1.64,1.64,0,0,0,.7.09,1.14,1.14,0,0,0,.82-.2,2,2,0,0,0,.39-.66Z" transform="translate(-0.37 -0.4)"/><path d="M9.24,43.63c-.05.23-.19.86-.26,1.07H5.38v-.19c.68-.06.74-.11.74-.66V41.21c0-.6-.06-.62-.63-.66v-.2H8.8c0,.17,0,.62.08,1l-.23,0a1.71,1.71,0,0,0-.24-.57c-.11-.14-.3-.19-.83-.19H7c-.24,0-.25,0-.25.21v1.52h.68c.67,0,.71-.06.8-.5h.22V43.1H8.26c-.1-.48-.15-.52-.79-.52H6.78v1.25c0,.32,0,.46.18.54a1.82,1.82,0,0,0,.76.09c.54,0,.76-.05.93-.22A2.46,2.46,0,0,0,9,43.6Z" transform="translate(-0.37 -0.4)"/><path d="M13.3,41.38c-.12-.42-.33-.89-1-.89a.72.72,0,0,0-.81.72c0,.47.34.7.93,1s1.29.6,1.29,1.34-.67,1.27-1.66,1.27a2.73,2.73,0,0,1-.73-.1,2.33,2.33,0,0,1-.37-.13c-.05-.15-.15-.73-.2-1.06l.22,0a1.34,1.34,0,0,0,1.22,1.11.78.78,0,0,0,.87-.8c0-.48-.39-.72-.95-1s-1.23-.57-1.23-1.32.58-1.2,1.54-1.2a3.29,3.29,0,0,1,.94.16c0,.24.07.5.13.93Z" transform="translate(-0.37 -0.4)"/><path d="M33.92,40.65c-.51.05-.61.11-.89.71-.21.44-1,2.13-1.53,3.51h-.25c-.5-1.23-1.11-2.67-1.53-3.63-.23-.5-.34-.56-.79-.59v-.2h1.85v.2c-.52.05-.54.1-.43.4.2.48.75,1.78,1.23,2.88h0c.39-.87.92-2.13,1.15-2.77.15-.39.1-.45-.49-.51v-.2h1.67Z" transform="translate(-0.37 -0.4)"/><path d="M39.18,43.73c0,.23-.19.85-.25,1.06h-3.6V44.6c.67-.05.73-.1.73-.65V41.31c0-.6-.06-.63-.63-.66v-.2h3.32c0,.17,0,.62.07,1l-.22,0a2.13,2.13,0,0,0-.25-.58c-.11-.13-.3-.18-.83-.18H37c-.24,0-.26,0-.26.21v1.51h.69c.66,0,.7,0,.8-.5h.21V43.2h-.21c-.1-.48-.15-.52-.8-.52h-.69v1.25c0,.32.05.46.18.54a1.85,1.85,0,0,0,.76.09c.55,0,.76-.05.93-.23A2,2,0,0,0,39,43.7Z" transform="translate(-0.37 -0.4)"/><path d="M45.78,40.65c-.42,0-.59.09-.62.4a7.94,7.94,0,0,0,0,1.12v2.69h-.23l-3.19-3.49h0V43a11.19,11.19,0,0,0,0,1.12c0,.34.2.43.71.45v.19H40.68V44.6c.41,0,.6-.11.64-.43a8.63,8.63,0,0,0,0-1.14V41.57c0-.48,0-.52-.15-.68a.81.81,0,0,0-.66-.24v-.2h1.13l3.09,3.33h0V42.17a7.66,7.66,0,0,0,0-1.11c0-.3-.21-.39-.73-.41v-.2h1.76Z" transform="translate(-0.37 -0.4)"/><path d="M51.23,41.51A1.44,1.44,0,0,0,51,40.9c-.12-.16-.24-.21-.81-.21h-.51V44c0,.52.08.59.77.63v.19H48.28V44.6c.66,0,.73-.11.73-.63V40.69h-.45c-.62,0-.76.06-.87.21a1.88,1.88,0,0,0-.24.61h-.22c0-.42.08-.86.09-1.23h.15c.11.16.2.17.41.17h3a.42.42,0,0,0,.38-.17h.15c0,.31,0,.81.07,1.21Z" transform="translate(-0.37 -0.4)"/><path d="M55.61,41.48c-.13-.42-.34-.89-1-.89a.73.73,0,0,0-.82.72c0,.47.35.7.94,1s1.28.6,1.28,1.34-.66,1.27-1.65,1.27a2.67,2.67,0,0,1-.73-.1,2.57,2.57,0,0,1-.38-.13,9.16,9.16,0,0,1-.19-1.06l.22-.06a1.34,1.34,0,0,0,1.22,1.12.77.77,0,0,0,.86-.8c0-.49-.38-.72-1-1s-1.22-.57-1.22-1.32.58-1.2,1.53-1.2a3.36,3.36,0,0,1,1,.16c0,.23.07.5.13.92Z" transform="translate(-0.37 -0.4)"/><path class="cls-1" d="M38.55,3.54c-1.89-2.34-3.73-2.18-6.89-3a17.93,17.93,0,0,0-4.57.11c-2.2,0-1.86.07-4.59.84s-3.89,1.82-5.89,4.11C13.7,8.9,14.51,12,15.05,13.1a8.36,8.36,0,0,0-.54,1.48c-1.23,4.7,1.27,9.28,5.07,11.7a15.38,15.38,0,0,0,21.25-5C44.54,15.45,44.3,6.55,38.55,3.54Z" transform="translate(-0.37 -0.4)"/><path class="cls-2" d="M29,14.4a8.58,8.58,0,0,1-1.35-.07c-.41-.07-.73-.12-1.05-.2a4.56,4.56,0,0,1-2.62-1.76,6,6,0,0,1-1.19-4.28,5,5,0,0,1,1.11-2.81,4.58,4.58,0,0,1,2.08-1.44,6.09,6.09,0,0,1,.61-.17l.21,0h0a.48.48,0,0,1,.45.18l.13.18-.17.13a5.25,5.25,0,0,0-2.28,3,4.8,4.8,0,0,0-.17,2.22,4.88,4.88,0,0,0,.9,2.07,3.69,3.69,0,0,0,1.08,1,3,3,0,0,0,.8.32A6.27,6.27,0,0,0,29,12.9h.19l.24-.06a4.42,4.42,0,0,0,2.83-2.39,5.4,5.4,0,0,0,.43-2.93.79.79,0,0,1,0-.21l0-.16L32.88,7h.18l.27.24c0,.1,0,.19.06.29a8,8,0,0,1,.06,2.74A4.84,4.84,0,0,1,31,13.78a6.09,6.09,0,0,1-1,.45A4.89,4.89,0,0,1,29,14.4Z" transform="translate(-0.37 -0.4)"/><path d="M25,5.42a.32.32,0,0,0,.32-.32c0-.17-.06-.28-.19-.29s-.28.16-.29.37S24.89,5.41,25,5.42Z" transform="translate(-0.37 -0.4)"/><path d="M25,6.18A.94.94,0,0,0,25,5.85.15.15,0,0,0,25,5.74a.14.14,0,0,0-.13.06c-.06.09-.09.19-.15.3s.07.16.11.17A.2.2,0,0,0,25,6.18Z" transform="translate(-0.37 -0.4)"/><path d="M25.59,5.16c.12,0,.17-.1.17-.2s-.06-.18-.11-.19-.14.12-.18.26S25.54,5.15,25.59,5.16Z" transform="translate(-0.37 -0.4)"/><path d="M26.58,4.28c.12,0,.17-.08.2-.24s-.08-.13-.13-.13-.17.1-.18.2S26.48,4.28,26.58,4.28Z" transform="translate(-0.37 -0.4)"/><path d="M26.29,4.47c0-.13-.05-.23-.15-.24s-.22.12-.24.27,0,.2.13.21A.26.26,0,0,0,26.29,4.47Z" transform="translate(-0.37 -0.4)"/><path d="M23.12,7.3c-.13.07-.14.22-.13.36h0c0,.17.12.26.25.26s.25-.11.26-.32a.35.35,0,0,0-.16-.32A.24.24,0,0,0,23.12,7.3Z" transform="translate(-0.37 -0.4)"/><path d="M24.43,6a.51.51,0,0,0,.1-.46c0-.15-.15-.2-.25-.08a3.3,3.3,0,0,0-.23.42c.05.1.07.21.13.24S24.37,6.09,24.43,6Z" transform="translate(-0.37 -0.4)"/><path d="M24.66,7a.46.46,0,0,0,0-.44.21.21,0,0,0-.38-.07,2,2,0,0,0-.17.32c0,.15,0,.28.19.33A.28.28,0,0,0,24.66,7Z" transform="translate(-0.37 -0.4)"/><path d="M23.8,6.45a.24.24,0,0,0,.11.16c.09,0,.19-.09.21-.26s-.07-.11-.13-.13S23.79,6.32,23.8,6.45Z" transform="translate(-0.37 -0.4)"/><path d="M23.46,6.56a2.75,2.75,0,0,0-.15.25c0,.06.05.14.09.15a.15.15,0,0,0,.16,0,.62.62,0,0,0,.09-.29C23.65,6.5,23.54,6.47,23.46,6.56Z" transform="translate(-0.37 -0.4)"/><path d="M23.81,7c-.07,0-.14.1-.17.17a.57.57,0,0,0,0,.26.23.23,0,0,0,.25.2c.13,0,.16-.14.18-.29a.41.41,0,0,0-.06-.2A.28.28,0,0,0,23.81,7Z" transform="translate(-0.37 -0.4)"/><path class="cls-2" d="M17.64,16.3l.51.17a11.79,11.79,0,0,0,2.9,1.07,25.9,25.9,0,0,0,7.26.44c.59,0,.34.27,0,.27h-.19a23.89,23.89,0,0,1-9.23-.94C17.72,16.89,17.64,16.3,17.64,16.3Z" transform="translate(-0.37 -0.4)"/><path class="cls-2" d="M23,18c-.16,0-.19-.06-.19-.17a3.8,3.8,0,0,0-.71-2.17,2.22,2.22,0,0,0-.57-.53.73.73,0,0,0-1.17.36,6,6,0,0,0-.11,1.11,3.53,3.53,0,0,1-.44,1.7,4.27,4.27,0,0,0-.32.84A.81.81,0,0,0,20,20a2,2,0,0,0,2.39-.62,2.62,2.62,0,0,0,.39-1.29c0-.16.08-.17.25-.18Z" transform="translate(-0.37 -0.4)"/><path class="cls-2" d="M28.59,18a9.05,9.05,0,0,0,3.14-.64c.95-.38,2.85-1.76,3.77-1.64s.66.2,1.41,1.2,1.2,1.26.74,1a4.27,4.27,0,0,1-.8-.64s-.33-1.28-1.43-1.33C34,15.86,32.53,18,28.54,18.25Z" transform="translate(-0.37 -0.4)"/><path class="cls-3" d="M33.73,22.3h0Z" transform="translate(-0.37 -0.4)"/><path class="cls-2" d="M28.37,29.39c0-.51,0-6.86.84-6.9a20.53,20.53,0,0,1,2.82.17h0l1.68.08h.34l2,.11s.11,0,.09-.1-.26-.11-.26-.11l-1.8-.12c-.42,0-1.42-.15-1.62-.15-1,0-1.92-.07-2.87-.16s-1-.31-.95-1.19c0-.17,0-.33,0-.5.11-3.94-.07-4.17,0-8.11,0-.41,0-.81,0-1.21h-.17c-.07,1.62-.14,3.24-.19,4.85-.1,3,.11,2.3,0,5.31,0,.35-.06.82-.48.81l0,.29c.7-.09.24,6.65.23,7Z" transform="translate(-0.37 -0.4)"/><path class="cls-2" d="M24.71,22.44a3.16,3.16,0,0,0,.48-.11,6.4,6.4,0,0,1,.72-.2,11.09,11.09,0,0,1,1.91,0c.24,0,0,.29,0,.29a12.76,12.76,0,0,0-1.83,0c-.44.08-.77.17-.77.17l-.46.07s-.15,0-.16-.07S24.71,22.44,24.71,22.44Z" transform="translate(-0.37 -0.4)"/><path class="cls-2" d="M35.37,15.32s1.32-1.42,2.05-1.39,1.72.63,1.46,1.38-.77.71-.79.86.47.19.55.87-.15,1.46-1.19,1.14S34.76,16.29,35.37,15.32Z" transform="translate(-0.37 -0.4)"/><path class="cls-2" d="M28.43,10a.74.74,0,0,0-.48.65c0,.29.25.52.69.58a.55.55,0,0,0,.66-.51A.7.7,0,0,0,28.43,10Z" transform="translate(-0.37 -0.4)"/><path d="M17.41,31.19a2.68,2.68,0,0,1,1.79.49,1.58,1.58,0,0,1,.54,1.22A1.75,1.75,0,0,1,19,34.42a3.32,3.32,0,0,1-1.88.47H15.54v-.16c.54,0,.6-.07.6-.56V31.9c0-.48-.06-.51-.54-.55v-.16Zm-.71,2.94c0,.44.21.54.67.54A1.59,1.59,0,0,0,19.09,33a1.47,1.47,0,0,0-.73-1.35,2.08,2.08,0,0,0-1.08-.25,1.37,1.37,0,0,0-.5.07c-.06,0-.08.11-.08.33Z" transform="translate(-0.37 -0.4)"/><path d="M22.15,32.33a1.3,1.3,0,0,1,1.36,1.28A1.33,1.33,0,0,1,22.14,35a1.29,1.29,0,0,1-1.39-1.25,1.37,1.37,0,0,1,1.39-1.37Zm-.08.19c-.37,0-.71.35-.71,1s.34,1.25.85,1.25.69-.24.69-1-.29-1.21-.83-1.21Z" transform="translate(-0.37 -0.4)"/><path d="M27.81,34.89v-.15c.35,0,.43-.07.43-.47v-.93c0-.42-.17-.66-.55-.66A1.18,1.18,0,0,0,27,33a1.34,1.34,0,0,1,0,.24v1.1c0,.36,0,.4.4.43v.15H26.07v-.15c.38,0,.44-.07.44-.44v-1c0-.43-.18-.65-.55-.65a1.23,1.23,0,0,0-.67.29V34.3c0,.37.06.41.36.44v.15H24.31v-.15c.4,0,.46-.07.46-.45V33.12c0-.36,0-.39-.38-.44v-.13a4.46,4.46,0,0,0,.9-.24v.47l.46-.29a1,1,0,0,1,.51-.16.76.76,0,0,1,.7.47c.19-.12.36-.23.52-.31a.86.86,0,0,1,.47-.16.78.78,0,0,1,.81.88V34.3c0,.38,0,.4.4.44v.15Z" transform="translate(-0.37 -0.4)"/><path d="M31.93,35a.52.52,0,0,1-.3-.11.45.45,0,0,1-.15-.24,2,2,0,0,1-.74.35.73.73,0,0,1-.76-.7c0-.27.16-.45.51-.56a4.22,4.22,0,0,0,1-.37v-.1c0-.4-.21-.63-.52-.63a.41.41,0,0,0-.28.1,1,1,0,0,0-.18.38.19.19,0,0,1-.2.14A.29.29,0,0,1,30,33c0-.08.08-.14.2-.23a3.15,3.15,0,0,1,.95-.4.88.88,0,0,1,.53.16.79.79,0,0,1,.28.7v1c0,.26.12.34.23.34a.55.55,0,0,0,.22-.06l.06.15Zm-.46-1.43c-.14.07-.41.17-.54.23s-.38.21-.38.42a.42.42,0,0,0,.43.43.88.88,0,0,0,.49-.19Z" transform="translate(-0.37 -0.4)"/><path d="M33.12,34.89v-.15c.4,0,.45-.07.45-.46V33.11c0-.35,0-.38-.39-.43v-.14a4.33,4.33,0,0,0,.91-.22v2c0,.38,0,.42.44.46v.15Zm.33-3.35a.32.32,0,0,1,.34-.3.31.31,0,0,1,.33.3.32.32,0,0,1-.33.31A.33.33,0,0,1,33.45,31.54Z" transform="translate(-0.37 -0.4)"/><path d="M37.07,34.89v-.15c.37,0,.41-.08.41-.48v-.94c0-.39-.17-.64-.56-.64a1.21,1.21,0,0,0-.67.28v1.33c0,.38,0,.41.4.45v.15H35.27v-.15c.42-.05.46-.08.46-.45V33.12c0-.37,0-.38-.38-.44v-.13a4.13,4.13,0,0,0,.9-.24v.46l.42-.26a1,1,0,0,1,.52-.18.78.78,0,0,1,.81.88v1.08c0,.38,0,.41.4.45v.15Z" transform="translate(-0.37 -0.4)"/><path d="M41.48,34.39a1.47,1.47,0,0,1-1,.56,1.17,1.17,0,0,1-1.22-1.21,1.39,1.39,0,0,1,.41-1,1.35,1.35,0,0,1,.92-.42h0a.93.93,0,0,1,.95.88c0,.11,0,.15-.15.18s-.89.07-1.63.09a1,1,0,0,0,.93,1.07,1.07,1.07,0,0,0,.72-.28ZM40.4,32.55c-.27,0-.54.23-.63.7l1,0c.11,0,.15,0,.15-.11a.54.54,0,0,0-.54-.57Z" transform="translate(-0.37 -0.4)"/></svg>